<?xml version="1.0" encoding="UTF-8"?>
<svg xmlns="http://www.w3.org/2000/svg" xmlns:xlink="http://www.w3.org/1999/xlink" width="218.567pt" height="64.871pt" viewBox="0 0 218.567 64.871">
<defs>
<g>
<g id="glyph-0-0">
<path d="M 4.59375 -10.640625 L 1.375 -9.546875 L 1.375 -9.140625 L 2.609375 -9.140625 C 3.546875 -9.140625 3.3125 -7.921875 3.3125 -6.265625 C 3.3125 -4.171875 3.265625 -2.078125 3.203125 0 L 3.375 0.078125 L 4.625 -0.328125 C 4.578125 -1.46875 4.578125 -4.421875 4.578125 -6.453125 C 4.578125 -7.78125 4.609375 -9.125 4.6875 -10.453125 Z M 4.59375 -10.640625 "/>
</g>
<g id="glyph-0-1">
<path d="M 11.953125 -10.3125 L 7.828125 -2.203125 C 7.796875 -2.140625 7.703125 -2.0625 7.640625 -2.0625 C 7.59375 -2.0625 7.515625 -2.203125 7.484375 -2.265625 C 6.25 -4.921875 4.84375 -7.90625 4.015625 -10.3125 L 1.390625 -10.3125 L 1.28125 -10.203125 L 1.25 -9.875 L 2.265625 -9.59375 C 2.546875 -9.515625 2.6875 -9.28125 2.6875 -9 C 2.6875 -8.953125 2.6875 -8.890625 2.671875 -8.828125 C 2.265625 -5.875 1.75 -2.921875 1.1875 0 L 1.28125 0.046875 L 2.40625 -0.34375 C 2.515625 -1.6875 3.015625 -8.1875 3.328125 -8.1875 C 3.390625 -8.1875 3.453125 -8.109375 3.5 -8.03125 C 4.4375 -6.125 5.84375 -2.703125 6.953125 -0.015625 L 7.40625 -0.015625 L 11.6875 -8.296875 C 11.71875 -8.359375 11.796875 -8.40625 11.84375 -8.40625 C 11.921875 -8.40625 11.96875 -8.3125 11.96875 -8.1875 C 12 -7.203125 12.109375 -3.53125 12.109375 -3.15625 L 12.109375 -0.4375 C 12.109375 -0.046875 12.609375 0.09375 13.0625 0.09375 C 13.65625 0.09375 14.421875 -0.171875 15.09375 -0.421875 L 15.09375 -0.78125 C 14.8125 -0.75 14.4375 -0.6875 14.25 -0.6875 C 13.75 -0.6875 13.421875 -1.09375 13.390625 -1.53125 C 13.125 -3.96875 13.109375 -6.265625 13.109375 -8.703125 C 13.109375 -9.359375 13.078125 -9.921875 13.484375 -10.125 L 13.484375 -10.3125 Z M 11.953125 -10.3125 "/>
</g>
<g id="glyph-1-0">
<path d="M 10.78125 -3.734375 C 10.78125 -6.484375 8.546875 -8.703125 5.8125 -8.703125 C 3.03125 -8.703125 0.828125 -6.453125 0.828125 -3.734375 C 0.828125 -0.984375 3.0625 1.234375 5.796875 1.234375 C 8.578125 1.234375 10.78125 -1.015625 10.78125 -3.734375 Z M 2.84375 -6.953125 C 2.8125 -6.96875 2.703125 -7.078125 2.703125 -7.109375 C 2.703125 -7.171875 3.90625 -8.328125 5.796875 -8.328125 C 6.3125 -8.328125 7.6875 -8.265625 8.921875 -7.109375 L 5.8125 -3.984375 Z M 2.40625 -0.609375 C 1.5 -1.625 1.1875 -2.78125 1.1875 -3.734375 C 1.1875 -4.890625 1.625 -5.96875 2.40625 -6.859375 L 5.53125 -3.734375 Z M 9.1875 -6.859375 C 9.90625 -6.09375 10.40625 -4.953125 10.40625 -3.734375 C 10.40625 -2.578125 9.984375 -1.5 9.203125 -0.609375 L 6.078125 -3.734375 Z M 8.765625 -0.515625 C 8.796875 -0.5 8.90625 -0.390625 8.90625 -0.359375 C 8.90625 -0.296875 7.6875 0.859375 5.8125 0.859375 C 5.28125 0.859375 3.90625 0.796875 2.6875 -0.359375 L 5.796875 -3.484375 Z M 8.765625 -0.515625 "/>
</g>
<g id="glyph-2-0">
<path d="M 7.9375 -1.09375 L 7.828125 -1.125 C 7.546875 -0.9375 7.140625 -0.671875 6.8125 -0.671875 C 6.234375 -0.671875 6.234375 -1.25 6.234375 -1.890625 C 6.234375 -2.859375 6.28125 -3.828125 6.375 -4.796875 L 6.21875 -4.90625 L 5.3125 -4.546875 C 5.328125 -4.328125 5.328125 -3.921875 5.328125 -3.4375 C 5.328125 -2.703125 5.3125 -1.765625 5.3125 -1.09375 C 4.859375 -0.84375 4.3125 -0.53125 3.765625 -0.53125 C 2.6875 -0.53125 2.703125 -1.46875 2.703125 -2.546875 C 2.703125 -4.3125 2.796875 -4.890625 1.921875 -4.890625 C 1.421875 -4.890625 0.78125 -4.4375 0.3125 -4.125 L 0.46875 -3.921875 C 0.734375 -4.0625 1.140625 -4.234375 1.3125 -4.234375 C 1.4375 -4.234375 1.5625 -4.21875 1.625 -4.140625 C 1.796875 -4 1.84375 -3.828125 1.84375 -2.875 C 1.84375 -2.578125 1.78125 -1.515625 1.78125 -1.171875 C 1.78125 -0.953125 1.84375 -0.4375 2.078125 -0.203125 C 2.296875 0.03125 2.703125 0.109375 3.03125 0.109375 C 3.734375 0.109375 4.5625 -0.328125 5.25 -0.671875 L 5.34375 -0.671875 C 5.421875 -0.21875 5.609375 0.078125 6.15625 0.078125 C 6.765625 0.078125 7.5 -0.46875 8.0625 -0.90625 Z M 7.9375 -1.09375 "/>
</g>
<g id="glyph-2-1">
<path d="M 3.96875 -7.4375 L 1.40625 -6.671875 L 1.40625 -6.390625 L 2.390625 -6.390625 C 3.125 -6.390625 2.953125 -5.546875 2.953125 -4.375 C 2.953125 -2.921875 2.90625 -1.453125 2.859375 0 L 2.984375 0.046875 L 3.984375 -0.234375 C 3.953125 -1.03125 3.953125 -3.09375 3.953125 -4.515625 C 3.953125 -5.453125 3.96875 -6.390625 4.03125 -7.3125 Z M 3.96875 -7.4375 "/>
</g>
<g id="glyph-2-2">
<path d="M 5.296875 0.046875 L 5.421875 0.109375 L 6.296875 -0.1875 C 6.25 -0.9375 6.234375 -1.6875 6.234375 -2.453125 C 6.234375 -2.90625 6.234375 -3.359375 6.25 -3.828125 C 6.578125 -4 7 -4.1875 7.578125 -4.1875 C 8.328125 -4.1875 8.578125 -3.703125 8.578125 -2.8125 C 8.578125 -2.03125 8.515625 -0.78125 8.515625 -0.609375 C 8.515625 -0.203125 8.796875 0.1875 9.328125 0.1875 C 10.046875 0.171875 10.671875 -0.296875 11.21875 -0.734375 L 11.125 -0.96875 L 10.96875 -0.96875 C 10.6875 -0.78125 10.3125 -0.546875 10.0625 -0.546875 C 9.5625 -0.546875 9.453125 -0.921875 9.453125 -1.21875 L 9.453125 -2.59375 C 9.453125 -3.640625 9.515625 -4.25 9.21875 -4.53125 C 8.96875 -4.75 8.625 -4.8125 8.296875 -4.8125 C 7.5625 -4.8125 6.84375 -4.4375 6.390625 -4.234375 L 6.203125 -4.25 C 5.984375 -4.59375 5.578125 -4.796875 5.140625 -4.796875 C 4.4375 -4.796875 3.71875 -4.375 3.109375 -4.09375 L 3.015625 -4.15625 C 3.015625 -4.546875 2.859375 -4.921875 2.296875 -4.921875 C 1.6875 -4.890625 1.125 -4.53125 0.671875 -4.203125 L 0.8125 -4 C 1.078125 -4.140625 1.5 -4.3125 1.6875 -4.3125 C 2.171875 -4.3125 2.15625 -3.65625 2.15625 -2.859375 C 2.15625 -1.90625 2.09375 -0.9375 2.078125 0.015625 L 2.25 0.109375 L 3.046875 -0.140625 C 3.015625 -0.578125 3.015625 -1 3.015625 -1.4375 C 3.015625 -2.1875 3.046875 -2.96875 3.078125 -3.71875 C 3.171875 -3.78125 3.90625 -4.1875 4.453125 -4.1875 C 5.15625 -4.1875 5.421875 -3.78125 5.421875 -2.8125 C 5.421875 -1.625 5.296875 -0.296875 5.296875 0.046875 Z M 5.296875 0.046875 "/>
</g>
<g id="glyph-3-0">
<path d="M 8.515625 -2.609375 C 8.515625 -4.75 6.78125 -6.46875 4.65625 -6.46875 C 2.53125 -6.46875 0.8125 -4.71875 0.8125 -2.625 C 0.8125 -0.484375 2.546875 1.234375 4.65625 1.234375 C 6.796875 1.234375 8.515625 -0.515625 8.515625 -2.609375 Z M 2.328125 -5.21875 C 2.75 -5.609375 3.546875 -6.109375 4.65625 -6.109375 C 5.765625 -6.109375 6.578125 -5.609375 7 -5.21875 L 4.65625 -2.875 Z M 2.0625 -0.28125 C 1.5 -0.875 1.15625 -1.75 1.15625 -2.609375 C 1.15625 -3.53125 1.53125 -4.390625 2.0625 -4.953125 L 4.40625 -2.625 Z M 7.25 -4.953125 C 7.828125 -4.359375 8.15625 -3.484375 8.15625 -2.625 C 8.15625 -1.703125 7.796875 -0.84375 7.25 -0.28125 L 4.90625 -2.609375 Z M 7 -0.015625 C 6.578125 0.359375 5.765625 0.875 4.65625 0.875 C 3.546875 0.875 2.75 0.359375 2.328125 -0.015625 L 4.65625 -2.359375 Z M 7 -0.015625 "/>
</g>
<g id="glyph-4-0">
<path d="M 1.75 -3.25 C 1.75 -5.6875 2.96875 -6.3125 3.765625 -6.3125 C 3.90625 -6.3125 4.84375 -6.296875 5.359375 -5.765625 C 4.75 -5.71875 4.65625 -5.265625 4.65625 -5.078125 C 4.65625 -4.6875 4.921875 -4.390625 5.34375 -4.390625 C 5.734375 -4.390625 6.03125 -4.640625 6.03125 -5.09375 C 6.03125 -6.109375 4.90625 -6.6875 3.75 -6.6875 C 1.875 -6.6875 0.515625 -5.078125 0.515625 -3.21875 C 0.515625 -1.3125 1.984375 0.171875 3.71875 0.171875 C 5.71875 0.171875 6.203125 -1.625 6.203125 -1.78125 C 6.203125 -1.921875 6.046875 -1.921875 6 -1.921875 C 5.875 -1.921875 5.84375 -1.859375 5.8125 -1.78125 C 5.375 -0.390625 4.40625 -0.203125 3.859375 -0.203125 C 3.0625 -0.203125 1.75 -0.84375 1.75 -3.25 Z M 1.75 -3.25 "/>
</g>
<g id="glyph-4-1">
<path d="M 4.96875 -1.140625 C 5.03125 -0.53125 5.4375 0.09375 6.140625 0.09375 C 6.453125 0.09375 7.359375 -0.125 7.359375 -1.328125 L 7.359375 -2.171875 L 6.984375 -2.171875 L 6.984375 -1.328125 C 6.984375 -0.46875 6.625 -0.375 6.453125 -0.375 C 5.953125 -0.375 5.90625 -1.046875 5.90625 -1.125 L 5.90625 -4.109375 C 5.90625 -4.734375 5.90625 -5.3125 5.359375 -5.875 C 4.78125 -6.453125 4.03125 -6.6875 3.3125 -6.6875 C 2.09375 -6.6875 1.0625 -5.984375 1.0625 -5 C 1.0625 -4.5625 1.359375 -4.296875 1.75 -4.296875 C 2.171875 -4.296875 2.4375 -4.59375 2.4375 -4.984375 C 2.4375 -5.171875 2.359375 -5.65625 1.671875 -5.671875 C 2.078125 -6.203125 2.8125 -6.359375 3.28125 -6.359375 C 4.015625 -6.359375 4.875 -5.78125 4.875 -4.453125 L 4.875 -3.90625 C 4.109375 -3.859375 3.0625 -3.8125 2.125 -3.359375 C 1 -2.859375 0.625 -2.078125 0.625 -1.421875 C 0.625 -0.203125 2.078125 0.171875 3.015625 0.171875 C 4 0.171875 4.6875 -0.4375 4.96875 -1.140625 Z M 4.875 -3.578125 L 4.875 -2.09375 C 4.875 -0.671875 3.796875 -0.171875 3.125 -0.171875 C 2.390625 -0.171875 1.78125 -0.6875 1.78125 -1.4375 C 1.78125 -2.25 2.40625 -3.5 4.875 -3.578125 Z M 4.875 -3.578125 "/>
</g>
<g id="glyph-4-2">
<path d="M 1.640625 -5.140625 L 1.640625 -1.140625 C 1.640625 -0.46875 1.484375 -0.46875 0.484375 -0.46875 L 0.484375 0 C 1 -0.015625 1.765625 -0.046875 2.171875 -0.046875 C 2.546875 -0.046875 3.328125 -0.015625 3.84375 0 L 3.84375 -0.46875 C 2.84375 -0.46875 2.671875 -0.46875 2.671875 -1.140625 L 2.671875 -3.890625 C 2.671875 -5.4375 3.734375 -6.28125 4.6875 -6.28125 C 5.625 -6.28125 5.796875 -5.46875 5.796875 -4.609375 L 5.796875 -1.140625 C 5.796875 -0.46875 5.625 -0.46875 4.625 -0.46875 L 4.625 0 C 5.15625 -0.015625 5.921875 -0.046875 6.3125 -0.046875 C 6.703125 -0.046875 7.484375 -0.015625 7.984375 0 L 7.984375 -0.46875 C 7.21875 -0.46875 6.84375 -0.46875 6.828125 -0.90625 L 6.828125 -3.765625 C 6.828125 -5.046875 6.828125 -5.515625 6.359375 -6.046875 C 6.15625 -6.296875 5.65625 -6.609375 4.796875 -6.609375 C 3.703125 -6.609375 3 -5.953125 2.578125 -5.03125 L 2.578125 -6.609375 L 0.484375 -6.4375 L 0.484375 -5.96875 C 1.53125 -5.96875 1.640625 -5.875 1.640625 -5.140625 Z M 1.640625 -5.140625 "/>
</g>
</g>
</defs>
<g fill="rgb(0%, 0%, 0%)" fill-opacity="1">
<use xlink:href="#glyph-0-0" x="6.434" y="18.953"/>
</g>
<g fill="rgb(0%, 0%, 0%)" fill-opacity="1">
<use xlink:href="#glyph-1-0" x="17.219013" y="18.953"/>
</g>
<g fill="rgb(0%, 0%, 0%)" fill-opacity="1">
<use xlink:href="#glyph-0-1" x="32.159924" y="18.953"/>
</g>
<g fill="rgb(0%, 0%, 0%)" fill-opacity="1">
<use xlink:href="#glyph-0-1" x="84.548" y="18.953"/>
</g>
<g fill="rgb(0%, 0%, 0%)" fill-opacity="1">
<use xlink:href="#glyph-1-0" x="103.468472" y="18.953"/>
</g>
<g fill="rgb(0%, 0%, 0%)" fill-opacity="1">
<use xlink:href="#glyph-0-1" x="118.409383" y="18.953"/>
</g>
<g fill="rgb(0%, 0%, 0%)" fill-opacity="1">
<use xlink:href="#glyph-0-1" x="170.798" y="18.953"/>
</g>
<g fill="rgb(0%, 0%, 0%)" fill-opacity="1">
<use xlink:href="#glyph-1-0" x="189.718472" y="18.953"/>
</g>
<g fill="rgb(0%, 0%, 0%)" fill-opacity="1">
<use xlink:href="#glyph-0-0" x="204.659383" y="18.953"/>
</g>
<g fill="rgb(0%, 0%, 0%)" fill-opacity="1">
<use xlink:href="#glyph-0-1" x="101.482" y="59.402"/>
</g>
<path fill="none" stroke-width="0.39848" stroke-linecap="butt" stroke-linejoin="miter" stroke="rgb(0%, 0%, 0%)" stroke-opacity="1" stroke-miterlimit="10" d="M -54.784 18.796156 L -31.866031 18.796156 " transform="matrix(1, 0, 0, -1, 109.284, 34.011)"/>
<path fill="none" stroke-width="0.39848" stroke-linecap="round" stroke-linejoin="round" stroke="rgb(0%, 0%, 0%)" stroke-opacity="1" stroke-miterlimit="10" d="M -2.072541 2.392411 C -1.693635 0.954911 -0.849885 0.27913 0.0016775 0.00178625 C -0.849885 -0.279464 -1.693635 -0.955245 -2.072541 -2.392745 " transform="matrix(1, 0, 0, -1, 77.61551, 15.21663)"/>
<g fill="rgb(0%, 0%, 0%)" fill-opacity="1">
<use xlink:href="#glyph-2-0" x="54.1" y="10.456"/>
</g>
<g fill="rgb(0%, 0%, 0%)" fill-opacity="1">
<use xlink:href="#glyph-3-0" x="62.333617" y="10.456"/>
</g>
<g fill="rgb(0%, 0%, 0%)" fill-opacity="1">
<use xlink:href="#glyph-2-1" x="71.673976" y="10.456"/>
</g>
<path fill="none" stroke-width="0.39848" stroke-linecap="butt" stroke-linejoin="miter" stroke="rgb(0%, 0%, 0%)" stroke-opacity="1" stroke-miterlimit="10" d="M -60.350406 8.046156 L -14.893375 -14.328844 " transform="matrix(1, 0, 0, -1, 109.284, 34.011)"/>
<path fill="none" stroke-width="0.39848" stroke-linecap="round" stroke-linejoin="round" stroke="rgb(0%, 0%, 0%)" stroke-opacity="1" stroke-miterlimit="10" d="M -2.07345 2.390483 C -1.694609 0.957261 -0.851545 0.279346 -0.000726 0.00145812 C -0.851553 -0.277966 -1.692664 -0.957528 -2.072039 -2.38948 " transform="matrix(0.89717, 0.44156, 0.44156, -0.89717, 94.57032, 48.42741)"/>
<g fill="rgb(0%, 0%, 0%)" fill-opacity="1">
<use xlink:href="#glyph-4-0" x="45.909" y="47.191"/>
<use xlink:href="#glyph-4-1" x="52.550069" y="47.191"/>
<use xlink:href="#glyph-4-2" x="60.022019" y="47.191"/>
</g>
<path fill="none" stroke-width="0.39848" stroke-linecap="butt" stroke-linejoin="miter" stroke="rgb(0%, 0%, 0%)" stroke-opacity="1" stroke-miterlimit="10" d="M 0.00115625 8.046156 L 0.00115625 -8.891344 " transform="matrix(1, 0, 0, -1, 109.284, 34.011)"/>
<path fill="none" stroke-width="0.39848" stroke-linecap="round" stroke-linejoin="round" stroke="rgb(0%, 0%, 0%)" stroke-opacity="1" stroke-miterlimit="10" d="M -2.070961 2.391546 C -1.691975 0.957942 -0.848175 0.278283 -0.000487559 0.000976245 C -0.848147 -0.280322 -1.69188 -0.956159 -2.070722 -2.3898 " transform="matrix(-0.00005, 0.99998, 0.99998, 0.00005, 109.28418, 43.10205)"/>
<g fill="rgb(0%, 0%, 0%)" fill-opacity="1">
<use xlink:href="#glyph-2-2" x="112.8" y="37.037"/>
</g>
<path fill="none" stroke-width="0.39848" stroke-linecap="butt" stroke-linejoin="miter" stroke="rgb(0%, 0%, 0%)" stroke-opacity="1" stroke-miterlimit="10" d="M 54.782406 18.796156 L 31.868344 18.796156 " transform="matrix(1, 0, 0, -1, 109.284, 34.011)"/>
<path fill="none" stroke-width="0.39848" stroke-linecap="round" stroke-linejoin="round" stroke="rgb(0%, 0%, 0%)" stroke-opacity="1" stroke-miterlimit="10" d="M -2.070947 2.392745 C -1.692041 0.955245 -0.848291 0.279464 -0.000635 -0.00178625 C -0.848291 -0.27913 -1.692041 -0.954911 -2.070947 -2.392411 " transform="matrix(-1, 0, 0, 1, 140.95249, 15.21663)"/>
<g fill="rgb(0%, 0%, 0%)" fill-opacity="1">
<use xlink:href="#glyph-2-1" x="140.35" y="10.456"/>
</g>
<g fill="rgb(0%, 0%, 0%)" fill-opacity="1">
<use xlink:href="#glyph-3-0" x="146.894214" y="10.456"/>
</g>
<g fill="rgb(0%, 0%, 0%)" fill-opacity="1">
<use xlink:href="#glyph-2-0" x="156.234573" y="10.456"/>
</g>
<path fill="none" stroke-width="0.39848" stroke-linecap="butt" stroke-linejoin="miter" stroke="rgb(0%, 0%, 0%)" stroke-opacity="1" stroke-miterlimit="10" d="M 60.352719 8.046156 L 14.891781 -14.328844 " transform="matrix(1, 0, 0, -1, 109.284, 34.011)"/>
<path fill="none" stroke-width="0.39848" stroke-linecap="round" stroke-linejoin="round" stroke="rgb(0%, 0%, 0%)" stroke-opacity="1" stroke-miterlimit="10" d="M -2.074175 2.390485 C -1.691266 0.956802 -0.850135 0.277249 0.000704068 -0.00216194 C -0.850117 -0.280067 -1.693176 -0.958004 -2.071995 -2.391246 " transform="matrix(-0.89717, 0.44154, 0.44154, 0.89717, 123.99768, 48.42741)"/>
<g fill="rgb(0%, 0%, 0%)" fill-opacity="1">
<use xlink:href="#glyph-4-0" x="150.243" y="47.191"/>
<use xlink:href="#glyph-4-1" x="156.884069" y="47.191"/>
<use xlink:href="#glyph-4-2" x="164.356019" y="47.191"/>
</g>
</svg>
